<svg width="132" height="44" viewBox="0 0 132 44" fill="none" xmlns="http://www.w3.org/2000/svg">
<path d="M11.6337 0.919678V1.10525L10.8629 1.29082V9.51295L11.6337 9.69852V9.88409H7.97946V9.69852L8.7503 9.51295V2.50415L5.7241 10.0126H5.33866L1.41317 2.50415V9.31311L2.44093 9.69852V9.88409H0V9.69852L1.02777 9.31311V1.29082L0.256931 1.10525V0.919678H1.85567C2.09834 0.919678 2.31246 0.948226 2.48376 1.00532C2.65505 1.06242 2.82637 1.13379 2.95484 1.23372C3.09758 1.33364 3.21178 1.44784 3.3117 1.57631C3.41162 1.70478 3.49728 1.8618 3.58292 2.01882L6.38072 7.37177L8.5219 2.01882C8.59327 1.83325 8.66466 1.67623 8.76459 1.54776C8.85023 1.41929 8.9644 1.30509 9.09287 1.20517C9.22134 1.10525 9.37839 1.03387 9.56396 0.991049C9.74953 0.948226 9.9779 0.919678 10.2634 0.919678H11.6337Z" fill="#292F36"/>
<path d="M16.202 3.30359C16.7302 3.30359 17.2155 3.37496 17.6295 3.53198C18.0434 3.689 18.4003 3.91739 18.7001 4.20288C18.9998 4.50265 19.214 4.85951 19.371 5.27347C19.528 5.68744 19.5994 6.17277 19.5994 6.70093C19.5994 7.22908 19.528 7.71442 19.371 8.12838C19.214 8.54234 18.9856 8.89921 18.7001 9.19897C18.4003 9.49874 18.0434 9.71286 17.6295 9.86988C17.2155 10.0269 16.7302 10.0983 16.202 10.0983C15.6739 10.0983 15.1885 10.0269 14.7746 9.86988C14.3606 9.71286 14.0038 9.48446 13.704 9.19897C13.4042 8.89921 13.1901 8.54234 13.0331 8.12838C12.8761 7.71442 12.8047 7.22908 12.8047 6.70093C12.8047 6.17277 12.8761 5.68744 13.0331 5.27347C13.1901 4.85951 13.4185 4.50265 13.704 4.20288C14.0038 3.90312 14.3606 3.689 14.7746 3.53198C15.1885 3.37496 15.6596 3.30359 16.202 3.30359ZM16.202 9.8556C16.3448 9.8556 16.4875 9.81278 16.6445 9.71285C16.7873 9.61293 16.9157 9.45591 17.0299 9.21325C17.1441 8.97058 17.2441 8.65654 17.3154 8.25685C17.3868 7.84289 17.4296 7.32901 17.4296 6.7152C17.4296 6.08712 17.3868 5.57324 17.3154 5.17355C17.2441 4.77387 17.1441 4.44555 17.0299 4.21716C16.9157 3.98877 16.7873 3.81747 16.6445 3.71755C16.5018 3.61763 16.3591 3.57481 16.202 3.57481C16.0593 3.57481 15.9165 3.61763 15.7595 3.71755C15.6168 3.81747 15.4883 3.97449 15.3741 4.21716C15.2599 4.45983 15.16 4.77387 15.0886 5.17355C15.0172 5.58751 14.9744 6.1014 14.9744 6.7152C14.9744 7.34328 15.0172 7.85716 15.0886 8.25685C15.16 8.65654 15.2599 8.98485 15.3741 9.21325C15.4883 9.44164 15.6168 9.61293 15.7595 9.71285C15.9023 9.7985 16.045 9.8556 16.202 9.8556Z" fill="#292F36"/>
<path d="M25.8369 0.919678C26.6078 0.919678 26.9932 1.30509 26.9932 2.07591V9.52722L27.764 9.71279V9.89836H26.6078C26.2937 9.89836 26.051 9.85554 25.8655 9.75562C25.6799 9.65569 25.5229 9.5415 25.423 9.4273C25.2945 9.28456 25.1946 9.11326 25.1375 8.94197C25.0233 9.17036 24.8805 9.35593 24.7092 9.52722C24.5665 9.66997 24.3666 9.79844 24.124 9.92691C23.8813 10.0554 23.5958 10.1125 23.2675 10.1125C22.8964 10.1125 22.5538 10.0411 22.2397 9.89836C21.9114 9.75562 21.6402 9.5415 21.4118 9.25601C21.1834 8.97052 20.9836 8.61365 20.8551 8.19969C20.7124 7.77146 20.6553 7.28612 20.6553 6.71514C20.6553 6.14416 20.7267 5.65882 20.8551 5.23059C20.9979 4.80235 21.1834 4.45976 21.4404 4.17427C21.683 3.88878 21.9828 3.67466 22.3254 3.53192C22.668 3.38917 23.0534 3.3178 23.4816 3.3178C23.71 3.3178 23.9099 3.34635 24.0954 3.38917C24.281 3.44627 24.438 3.50337 24.5665 3.57474C24.7235 3.64611 24.852 3.73176 24.9662 3.83168V1.33364L24.1954 1.14807V0.962502H25.8369V0.919678ZM24.9376 4.20282C24.8377 4.1029 24.7521 4.01725 24.6379 3.94588C24.538 3.87451 24.438 3.81741 24.3238 3.76031C24.2096 3.70321 24.0954 3.68894 23.967 3.68894C23.81 3.68894 23.6529 3.73176 23.5102 3.81741C23.3674 3.90306 23.2532 4.0458 23.139 4.25992C23.0391 4.47404 22.9535 4.78808 22.8964 5.17349C22.8393 5.57318 22.8107 6.07278 22.8107 6.70086C22.8107 7.31467 22.8393 7.8 22.8964 8.18542C22.9535 8.57083 23.0249 8.87059 23.1248 9.08471C23.2104 9.29883 23.3104 9.45585 23.4388 9.52722C23.553 9.5986 23.6672 9.64142 23.7814 9.64142C23.9812 9.64142 24.1525 9.58432 24.2953 9.4844C24.438 9.38448 24.5522 9.25601 24.6521 9.12754C24.7663 8.97052 24.8663 8.79922 24.9519 8.61365V4.20282H24.9376Z" fill="#292F36"/>
<path d="M32.0605 10.1126C30.9614 10.1126 30.1049 9.81278 29.5054 9.21325C28.8916 8.61372 28.5918 7.77152 28.5918 6.71521C28.5918 6.18705 28.6632 5.70172 28.8202 5.28776C28.9772 4.87379 29.1913 4.51693 29.4626 4.21717C29.7338 3.9174 30.0621 3.70328 30.4618 3.54626C30.8472 3.38924 31.2754 3.31787 31.7465 3.31787C32.2318 3.31787 32.6601 3.38924 33.0312 3.51771C33.4166 3.66046 33.7306 3.84603 34.0019 4.07442C34.2731 4.30282 34.4729 4.57403 34.6157 4.88807C34.7584 5.20211 34.8298 5.53042 34.8298 5.88729C34.8298 6.00148 34.8298 6.11568 34.8155 6.20133C34.8012 6.28698 34.787 6.37262 34.7727 6.44399C34.7441 6.52964 34.7298 6.60101 34.7013 6.65811C34.3302 6.72949 33.9305 6.80086 33.5022 6.84368C33.1454 6.90078 32.7314 6.9436 32.2604 6.97215C31.7893 7.0007 31.304 7.02925 30.7901 7.02925C30.7901 7.55741 30.8329 7.99992 30.9043 8.35678C30.9756 8.71365 31.0898 8.99913 31.2183 9.19898C31.3611 9.4131 31.5181 9.55584 31.7036 9.64149C31.8892 9.72714 32.1034 9.76996 32.3175 9.76996C32.5744 9.76996 32.8171 9.72714 33.0454 9.62722C33.2738 9.52729 33.4737 9.4131 33.6307 9.25608C33.802 9.09906 33.9305 8.91349 34.0304 8.71365C34.1303 8.5138 34.1731 8.31396 34.1731 8.09984H34.4872C34.4872 8.35678 34.4301 8.59945 34.3159 8.84211C34.2017 9.08478 34.0304 9.2989 33.8163 9.48447C33.6022 9.67004 33.3452 9.81278 33.0454 9.92698C32.76 10.0555 32.4316 10.1126 32.0605 10.1126ZM30.7758 6.70093C31.0613 6.70093 31.3182 6.70094 31.5466 6.68666C31.775 6.67239 31.9606 6.65811 32.1176 6.64384C32.3032 6.62956 32.4459 6.60101 32.5744 6.58674C32.5887 6.50109 32.6172 6.40117 32.6315 6.30125C32.6458 6.20133 32.6601 6.1014 32.6743 5.98721C32.6886 5.87301 32.6886 5.74454 32.6886 5.61607C32.6886 5.23066 32.66 4.90234 32.6029 4.6454C32.5458 4.38846 32.4745 4.17434 32.3745 4.00305C32.2889 3.84603 32.189 3.71756 32.0605 3.66046C31.932 3.60336 31.8321 3.56054 31.7179 3.56054C31.6037 3.56054 31.4895 3.60336 31.3753 3.68901C31.2612 3.77466 31.1612 3.93168 31.0613 4.14579C30.9757 4.37419 30.89 4.68823 30.8329 5.10219C30.7758 5.51615 30.7758 6.04431 30.7758 6.70093Z" fill="#292F36"/>
<path d="M40.2255 3.74605C39.9686 3.74605 39.7402 3.80314 39.5403 3.90307C39.3405 4.00299 39.1692 4.13146 39.0264 4.25993C38.8694 4.41695 38.7409 4.58824 38.6125 4.77381V9.52723L39.3833 9.7128V9.89837H35.7861V9.7128L36.557 9.52723V3.87452L35.7861 3.68895V3.50338H36.9424C37.2421 3.50338 37.4848 3.56048 37.6846 3.6604C37.8702 3.76032 38.0272 3.87452 38.1414 3.98871C38.2699 4.13146 38.3698 4.28848 38.4269 4.45977C38.5554 4.2742 38.7124 4.10291 38.898 3.94589C39.055 3.81742 39.2549 3.70322 39.4975 3.58903C39.7402 3.47483 40.0114 3.43201 40.3397 3.43201C40.7965 3.43201 41.1391 3.5462 41.3675 3.74605C41.5959 3.96016 41.6958 4.25993 41.6958 4.64534C41.6958 4.93083 41.6101 5.1735 41.4388 5.34479C41.2675 5.51609 41.0249 5.60174 40.7394 5.60174C40.668 5.60174 40.6109 5.60174 40.5395 5.60174C40.4682 5.60174 40.4254 5.58746 40.3825 5.58746C40.3254 5.57319 40.2683 5.57319 40.2255 5.54464V3.74605Z" fill="#292F36"/>
<path d="M47.2198 5.41621C47.2198 5.13072 47.1913 4.87378 47.1342 4.65966C47.0771 4.44555 47.0057 4.27425 46.9058 4.14578C46.8202 4.00303 46.7203 3.90311 46.5918 3.84601C46.4776 3.78891 46.3634 3.74609 46.2492 3.74609C46.0493 3.74609 45.878 3.80319 45.7353 3.90311C45.5926 4.00303 45.4641 4.1315 45.3784 4.25998C45.2642 4.417 45.1786 4.58829 45.0929 4.77386V9.52728L45.8638 9.71285V9.89842H42.2666V9.71285L43.0374 9.52728V3.87456L42.2666 3.68899V3.50342H43.4228C43.7226 3.50342 43.9653 3.56052 44.1651 3.66044C44.3507 3.76037 44.5077 3.87456 44.6219 3.98876C44.7504 4.1315 44.8503 4.28852 44.9074 4.45982C45.0216 4.2457 45.1643 4.04586 45.3356 3.87456C45.4784 3.73182 45.6782 3.60335 45.9066 3.47488C46.135 3.34641 46.4347 3.28931 46.7773 3.28931C47.1485 3.28931 47.4911 3.34641 47.7908 3.47488C48.1049 3.58907 48.3618 3.76037 48.5759 3.94594C48.79 4.14578 48.9614 4.3599 49.0898 4.61684C49.2183 4.87378 49.2754 5.13072 49.2754 5.40194V9.513L50.0462 9.69857V9.88414H48.3761C47.6053 9.88414 47.2198 9.49873 47.2198 8.7279V5.41621Z" fill="#292F36"/>
<path d="M1.35645 18.9199V18.3917H11.2772V18.9199L9.19315 19.448V30.2253H16.673V19.448L14.5889 18.9199V18.3917H24.5097V18.9199L22.4256 19.448V41.7163L24.5097 42.2445V42.7726H14.5889V42.2302L16.673 41.702V31.0961H9.19315V41.702L11.2772 42.2302V42.7584H1.35645V42.2302L3.44052 41.702V19.4338L1.35645 18.9199Z" fill="#292F36"/>
<path d="M37.2213 24.9432C38.6631 24.9432 39.9478 25.1573 41.0897 25.5713C42.2317 25.9852 43.1881 26.599 43.9875 27.3984C44.7868 28.1978 45.4006 29.1684 45.8146 30.3104C46.2286 31.4524 46.4427 32.7371 46.4427 34.1788C46.4427 35.6205 46.2286 36.9052 45.8146 38.0472C45.4006 39.1892 44.7868 40.1456 43.9875 40.9449C43.1881 41.7443 42.2174 42.3581 41.0897 42.7721C39.9478 43.186 38.6631 43.4002 37.2213 43.4002C35.7796 43.4002 34.4949 43.186 33.353 42.7721C32.211 42.3581 31.2546 41.7443 30.4552 40.9449C29.6558 40.1456 29.042 39.1749 28.6281 38.0472C28.2141 36.9052 28 35.6205 28 34.1788C28 32.7371 28.2141 31.4524 28.6281 30.3104C29.042 29.1684 29.6558 28.212 30.4552 27.3984C31.2546 26.5847 32.2253 25.9852 33.353 25.5713C34.4949 25.1573 35.7796 24.9432 37.2213 24.9432ZM37.2213 42.6864C37.621 42.6864 38.0065 42.558 38.4061 42.301C38.8058 42.0441 39.1484 41.6016 39.4625 40.9592C39.7765 40.3169 40.0334 39.4461 40.2333 38.347C40.4331 37.2478 40.533 35.8489 40.533 34.1503C40.533 32.4516 40.4331 31.0527 40.2333 29.9535C40.0334 28.8544 39.7765 27.9837 39.4625 27.3413C39.1484 26.6989 38.7916 26.2564 38.4061 25.9995C38.0207 25.7426 37.621 25.6141 37.2213 25.6141C36.8217 25.6141 36.4363 25.7426 36.0366 25.9995C35.6369 26.2564 35.2943 26.6989 34.9802 27.3413C34.6662 27.9837 34.4093 28.8544 34.2094 29.9535C34.0096 31.0527 33.9096 32.4516 33.9096 34.1503C33.9096 35.8489 34.0096 37.2478 34.2094 38.347C34.4093 39.4461 34.6662 40.3169 34.9802 40.9592C35.2943 41.6016 35.6512 42.0441 36.0366 42.301C36.4363 42.558 36.8217 42.6864 37.2213 42.6864Z" fill="#292F36"/>
<path d="M72.1433 30.5679C72.1433 29.74 72.072 29.0262 71.9292 28.4695C71.7865 27.9128 71.6152 27.4418 71.3868 27.0849C71.1584 26.728 70.9157 26.4711 70.6588 26.2998C70.3876 26.1428 70.1306 26.0571 69.8737 26.0571C69.4312 26.0571 69.0458 26.1999 68.7032 26.4854C68.3606 26.7709 68.0751 27.0992 67.8182 27.4418C67.5469 27.8557 67.29 28.3268 67.0902 28.8264V41.702L69.1885 42.2302V42.7583H59.4533V42.2302L61.5374 41.702V30.5679C61.5374 29.74 61.466 29.0262 61.3232 28.4695C61.1805 27.9128 61.0092 27.4418 60.7808 27.0849C60.5524 26.728 60.3098 26.4711 60.0528 26.2998C59.7816 26.1428 59.5246 26.0571 59.2677 26.0571C58.8252 26.0571 58.4398 26.1999 58.0972 26.4854C57.7546 26.7709 57.4691 27.0992 57.2122 27.4418C56.9267 27.8557 56.684 28.3268 56.4842 28.8264V41.702L58.5683 42.2302V42.7583H48.833V42.2302L50.9171 41.702V26.3997L48.833 25.8716V25.3434H51.9591C52.7728 25.3434 53.4437 25.4861 53.9576 25.7574C54.4857 26.0286 54.8854 26.3426 55.1995 26.6567C55.5421 27.0563 55.799 27.4846 55.9703 27.9414C56.27 27.3561 56.6412 26.8422 57.0837 26.3712C57.4834 25.9715 57.9687 25.6146 58.5397 25.2863C59.125 24.958 59.8244 24.801 60.6666 24.801C62.0512 24.801 63.2646 25.115 64.2638 25.7288C65.2773 26.3426 66.0481 27.142 66.5763 28.1127C66.8761 27.5131 67.2472 26.9707 67.6897 26.4711C68.0894 26.0571 68.5747 25.6717 69.1457 25.3291C69.7309 24.9865 70.4304 24.801 71.2726 24.801C72.229 24.801 73.0855 24.958 73.8848 25.2577C74.6699 25.5575 75.3551 25.9715 75.9261 26.4996C76.4971 27.0278 76.9396 27.6273 77.2536 28.3268C77.5677 29.0262 77.7247 29.7685 77.7247 30.5536V41.6877L79.8088 42.2159V42.7441H75.2837C73.1996 42.7441 72.1576 41.702 72.1576 39.6179V30.5679H72.1433Z" fill="#292F36"/>
<path d="M91.2852 43.2722C88.3161 43.2722 86.0037 42.4586 84.3621 40.817C82.7205 39.1754 81.8926 36.9343 81.8926 34.0509C81.8926 32.6091 82.1067 31.3244 82.5207 30.1825C82.9346 29.0405 83.5199 28.0841 84.2622 27.2705C85.0044 26.4711 85.9037 25.8573 86.9601 25.4433C88.0164 25.0294 89.1726 24.8152 90.4145 24.8152C91.7135 24.8152 92.884 25.0008 93.9118 25.372C94.9395 25.7431 95.8245 26.2427 96.5383 26.8708C97.252 27.4989 97.8087 28.2411 98.1941 29.0833C98.5795 29.9255 98.7651 30.8248 98.7651 31.7812C98.7651 32.1095 98.7508 32.395 98.708 32.6377C98.6652 32.8804 98.6366 33.0945 98.5795 33.28C98.5081 33.5084 98.451 33.7083 98.4082 33.8653C97.3805 34.0794 96.3099 34.2507 95.1679 34.3935C94.1973 34.5362 93.0695 34.6504 91.7991 34.7646C90.5287 34.8645 89.1869 34.9216 87.8023 34.9216C87.8023 36.3633 87.9022 37.5624 88.1163 38.5188C88.3304 39.4752 88.6159 40.246 88.987 40.817C89.3582 41.388 89.8007 41.7877 90.3145 42.0303C90.8284 42.273 91.3852 42.4015 91.9847 42.4015C92.6841 42.4015 93.3408 42.273 93.9546 42.0161C94.5684 41.7591 95.0965 41.4165 95.5533 40.9883C96.0101 40.5601 96.367 40.0747 96.6382 39.5323C96.9094 38.9899 97.0379 38.4332 97.0379 37.8764H97.9086C97.9086 38.5759 97.7516 39.2468 97.4376 39.8892C97.1235 40.5458 96.681 41.1168 96.0958 41.6164C95.5105 42.116 94.8253 42.5157 94.0117 42.8154C93.1838 43.1152 92.2702 43.2722 91.2852 43.2722ZM87.8023 34.0509C88.5874 34.0509 89.2868 34.0366 89.8863 33.9938C90.4859 33.9509 90.9998 33.9224 91.4137 33.8796C91.899 33.8368 92.313 33.7797 92.6699 33.7083C92.7127 33.4799 92.7698 33.2229 92.8412 32.9375C92.884 32.6805 92.9268 32.395 92.9553 32.081C92.9839 31.7669 93.0125 31.4386 93.0125 31.096C93.0125 30.054 92.9268 29.1833 92.7698 28.4695C92.6127 27.7558 92.3986 27.1848 92.156 26.7423C91.9133 26.2998 91.6278 25.9858 91.3281 25.8002C91.014 25.6146 90.7 25.5147 90.4002 25.5147C90.1004 25.5147 89.7864 25.6289 89.4724 25.843C89.1583 26.0714 88.8871 26.4854 88.6444 27.0992C88.4018 27.713 88.2019 28.5837 88.0307 29.6971C87.8879 30.8105 87.8023 32.2666 87.8023 34.0509Z" fill="#292F36"/>
<path d="M115.852 42.4015V28.284L103.376 18.406V42.4015H115.852Z" fill="#292F36"/>
<path d="M131.283 42.4015V28.284L119.007 18.406V42.4015H131.283Z" fill="#292F36"/>
</svg>
